<svg version="1.1" id="Layer_1" xmlns="http://www.w3.org/2000/svg" xmlns:xlink="http://www.w3.org/1999/xlink" x="0px" y="0px"
	 width="100%" viewBox="0 0 105 126" enable-background="new 0 0 105 126" xml:space="preserve">
<path fill="#FCFDFD" opacity="1.000000" stroke="none" 
	d="
M106.000000,49.000000 
	C106.000000,75.333328 106.000000,101.166664 106.000000,127.000000 
	C71.000008,127.000000 36.000015,127.000000 1.000016,127.000000 
	C1.000011,85.000015 1.000011,43.000023 1.000005,1.000028 
	C35.999985,1.000018 70.999969,1.000018 105.999977,1.000009 
	C106.000000,16.833334 106.000000,32.666668 106.000000,49.000000 
M9.775982,64.583191 
	C10.121797,65.516914 10.440686,66.461647 10.817374,67.382744 
	C19.552917,88.743401 42.380955,100.722336 64.338936,95.474251 
	C87.303139,89.985657 102.607430,69.333527 100.831879,46.229408 
	C99.098358,23.672140 80.786285,4.957776 58.152901,3.229526 
	C24.570450,0.665224 -0.251769,32.020638 9.775982,64.583191 
M58.648983,112.544662 
	C58.917702,109.673096 59.186417,106.801529 59.476475,103.701920 
	C58.280064,103.795586 56.768051,103.913963 56.306843,103.950073 
	C56.588699,107.823540 56.837940,111.248787 57.087181,114.674026 
	C54.153862,112.556961 52.265102,110.123924 50.367893,107.697487 
	C47.174347,103.613113 47.172089,103.614883 42.964901,104.260094 
	C45.595436,107.066658 45.830612,117.378967 43.297672,120.960876 
	C44.975037,120.960876 46.585804,120.960876 46.846302,120.960876 
	C46.615353,116.839706 46.399109,112.981003 46.182869,109.122307 
	C46.596519,109.015739 47.010174,108.909180 47.423824,108.802620 
	C50.740566,113.020264 54.057312,117.237907 57.374054,121.455551 
	C57.798969,121.229744 58.223881,121.003944 58.648796,120.778145 
	C58.648796,118.339592 58.648796,115.901039 58.648983,112.544662 
M65.190331,106.268448 
	C65.095222,111.205490 65.000114,116.142532 64.895798,121.557213 
	C65.727966,121.557213 67.773399,121.557213 69.187714,121.557213 
	C69.187714,115.404709 69.187714,109.723900 69.187714,104.290947 
	C67.813034,104.290947 65.631088,104.290947 62.534885,104.290947 
	C64.006126,105.049896 64.447365,105.277504 65.190331,106.268448 
M85.556778,115.918488 
	C84.136482,114.423729 82.954575,112.517815 81.242989,111.525467 
	C78.283508,109.809616 74.905304,108.725662 76.746292,103.657967 
	C72.111580,107.534294 72.498955,110.446548 77.394859,112.987030 
	C80.333260,114.511780 84.015625,115.307228 82.243675,120.470398 
	C82.698021,120.440681 83.152367,120.410965 83.606712,120.381248 
	C84.289383,119.140121 84.972054,117.898987 85.556778,115.918488 
M27.873257,114.173065 
	C28.059519,110.818283 28.245781,107.463501 28.431549,104.117622 
	C27.405266,104.117622 25.389547,104.117622 24.458145,104.117622 
	C24.636227,107.773338 24.921589,111.241226 24.943930,114.710800 
	C24.970301,118.806534 26.625891,121.228745 30.868174,121.893913 
	C29.740160,119.309418 28.811134,117.180847 27.873257,114.173065 
M37.771629,119.078041 
	C38.457363,114.017014 39.143097,108.955986 39.818340,103.972382 
	C38.553326,103.972382 36.656944,103.972382 35.276524,103.972382 
	C35.859169,105.931023 36.682194,107.673958 36.848335,109.477402 
	C37.158127,112.840157 37.085938,116.238106 37.771629,119.078041 
z"/>
<path fill="#0D3E69" opacity="1.000000" stroke="none" 
	d="
M9.622111,64.213562 
	C-0.251769,32.020638 24.570450,0.665224 58.152901,3.229526 
	C80.786285,4.957776 99.098358,23.672140 100.831879,46.229408 
	C102.607430,69.333527 87.303139,89.985657 64.338936,95.474251 
	C42.380955,100.722336 19.552917,88.743401 10.817374,67.382744 
	C10.440686,66.461647 10.121797,65.516914 9.622111,64.213562 
M39.862415,55.442532 
	C44.090649,59.187946 48.188835,63.100288 52.635887,66.564835 
	C53.789738,67.463760 56.651024,67.758873 57.673702,66.967995 
	C62.525307,63.216015 67.232071,59.211685 71.561836,54.869846 
	C75.256729,51.164650 75.103302,45.131187 71.877464,41.165585 
	C68.424377,36.920616 63.388245,35.867470 58.474369,38.398956 
	C57.453304,38.924973 56.494900,39.572628 55.574711,40.124023 
	C48.273464,36.061989 43.655010,36.154663 39.574928,40.366360 
	C35.876133,44.184475 35.783024,49.508606 39.862415,55.442532 
M15.077722,59.260796 
	C18.166771,67.346031 22.963608,73.993034 30.924448,78.475365 
	C31.710209,77.067825 32.312851,75.988312 32.901791,74.933350 
	C14.858906,62.763786 11.272645,38.038826 30.351032,21.429399 
	C29.690889,20.427607 29.011906,19.397224 28.337641,18.374002 
	C15.674154,26.349703 10.221574,42.879410 15.077722,59.260796 
M84.987068,66.357483 
	C81.934830,69.582062 78.882591,72.806641 75.577591,76.298248 
	C76.034546,77.028458 76.705894,78.101288 77.373032,79.167374 
	C91.303062,70.986107 98.011024,54.846954 93.951385,39.186974 
	C91.814178,30.942764 87.365547,24.147753 80.133270,18.977610 
	C79.251198,20.223845 78.516525,21.261829 77.796135,22.279636 
	C93.421799,35.813683 93.482338,53.429070 84.987068,66.357483 
M74.576393,29.031549 
	C74.722679,30.116486 74.476967,31.533943 75.073387,32.237038 
	C85.969353,45.081894 85.452927,55.695774 73.337990,67.963791 
	C72.643288,68.667267 72.716072,70.128654 72.126793,72.425781 
	C89.433311,61.255474 90.338928,38.617054 74.576393,29.031549 
M22.860369,43.409702 
	C21.628027,53.269497 24.843046,61.406212 32.516850,67.674057 
	C33.357716,68.360855 34.955963,68.120399 36.202923,68.310028 
	C35.679310,67.299850 35.380814,66.049698 34.598248,65.315552 
	C23.215557,54.637192 22.715715,41.671860 33.223881,30.187212 
	C33.977409,29.363661 34.090916,27.954504 34.502010,26.817631 
	C27.463037,30.216230 24.351446,35.852673 22.860369,43.409702 
z"/>
<path fill="#29567B" opacity="1.000000" stroke="none" 
	d="
M58.648888,113.003571 
	C58.648796,115.901039 58.648796,118.339592 58.648796,120.778145 
	C58.223881,121.003944 57.798969,121.229744 57.374054,121.455551 
	C54.057312,117.237907 50.740566,113.020264 47.423824,108.802620 
	C47.010174,108.909180 46.596519,109.015739 46.182869,109.122307 
	C46.399109,112.981003 46.615353,116.839706 46.846302,120.960876 
	C46.585804,120.960876 44.975037,120.960876 43.297672,120.960876 
	C45.830612,117.378967 45.595436,107.066658 42.964901,104.260094 
	C47.172089,103.614883 47.174347,103.613113 50.367893,107.697487 
	C52.265102,110.123924 54.153862,112.556961 57.087181,114.674026 
	C56.837940,111.248787 56.588699,107.823540 56.306843,103.950073 
	C56.768051,103.913963 58.280064,103.795586 59.476475,103.701920 
	C59.186417,106.801529 58.917702,109.673096 58.648888,113.003571 
z"/>
<path fill="#29557A" opacity="1.000000" stroke="none" 
	d="
M65.039467,105.886780 
	C64.447365,105.277504 64.006126,105.049896 62.534885,104.290947 
	C65.631088,104.290947 67.813034,104.290947 69.187714,104.290947 
	C69.187714,109.723900 69.187714,115.404709 69.187714,121.557213 
	C67.773399,121.557213 65.727966,121.557213 64.895798,121.557213 
	C65.000114,116.142532 65.095222,111.205490 65.039467,105.886780 
z"/>
<path fill="#225076" opacity="1.000000" stroke="none" 
	d="
M85.605751,116.288170 
	C84.972054,117.898987 84.289383,119.140121 83.606712,120.381248 
	C83.152367,120.410965 82.698021,120.440681 82.243675,120.470398 
	C84.015625,115.307228 80.333260,114.511780 77.394859,112.987030 
	C72.498955,110.446548 72.111580,107.534294 76.746292,103.657967 
	C74.905304,108.725662 78.283508,109.809616 81.242989,111.525467 
	C82.954575,112.517815 84.136482,114.423729 85.605751,116.288170 
z"/>
<path fill="#184870" opacity="1.000000" stroke="none" 
	d="
M27.877682,114.612671 
	C28.811134,117.180847 29.740160,119.309418 30.868174,121.893913 
	C26.625891,121.228745 24.970301,118.806534 24.943930,114.710800 
	C24.921589,111.241226 24.636227,107.773338 24.458145,104.117622 
	C25.389547,104.117622 27.405266,104.117622 28.431549,104.117622 
	C28.245781,107.463501 28.059519,110.818283 27.877682,114.612671 
z"/>
<path fill="#366082" opacity="1.000000" stroke="none" 
	d="
M37.472176,119.349724 
	C37.085938,116.238106 37.158127,112.840157 36.848335,109.477402 
	C36.682194,107.673958 35.859169,105.931023 35.276524,103.972382 
	C36.656944,103.972382 38.553326,103.972382 39.818340,103.972382 
	C39.143097,108.955986 38.457363,114.017014 37.472176,119.349724 
z"/>
<path fill="#CC1818" opacity="1.000000" stroke="none" 
	d="
M39.591446,55.179550 
	C35.783024,49.508606 35.876133,44.184475 39.574928,40.366360 
	C43.655010,36.154663 48.273464,36.061989 55.574711,40.124023 
	C56.494900,39.572628 57.453304,38.924973 58.474369,38.398956 
	C63.388245,35.867470 68.424377,36.920616 71.877464,41.165585 
	C75.103302,45.131187 75.256729,51.164650 71.561836,54.869846 
	C67.232071,59.211685 62.525307,63.216015 57.673702,66.967995 
	C56.651024,67.758873 53.789738,67.463760 52.635887,66.564835 
	C48.188835,63.100288 44.090649,59.187946 39.591446,55.179550 
z"/>
<path fill="#ECF0F3" opacity="1.000000" stroke="none" 
	d="
M14.978844,58.871307 
	C10.221574,42.879410 15.674154,26.349703 28.337641,18.374002 
	C29.011906,19.397224 29.690889,20.427607 30.351032,21.429399 
	C11.272645,38.038826 14.858906,62.763786 32.901791,74.933350 
	C32.312851,75.988312 31.710209,77.067825 30.924448,78.475365 
	C22.963608,73.993034 18.166771,67.346031 14.978844,58.871307 
z"/>
<path fill="#F0F3F6" opacity="1.000000" stroke="none" 
	d="
M85.177261,66.044403 
	C93.482338,53.429070 93.421799,35.813683 77.796135,22.279636 
	C78.516525,21.261829 79.251198,20.223845 80.133270,18.977610 
	C87.365547,24.147753 91.814178,30.942764 93.951385,39.186974 
	C98.011024,54.846954 91.303062,70.986107 77.373032,79.167374 
	C76.705894,78.101288 76.034546,77.028458 75.577591,76.298248 
	C78.882591,72.806641 81.934830,69.582062 85.177261,66.044403 
z"/>
<path fill="#E6EBEF" opacity="1.000000" stroke="none" 
	d="
M74.932526,28.874205 
	C90.338928,38.617054 89.433311,61.255474 72.126793,72.425781 
	C72.716072,70.128654 72.643288,68.667267 73.337990,67.963791 
	C85.452927,55.695774 85.969353,45.081894 75.073387,32.237038 
	C74.476967,31.533943 74.722679,30.116486 74.932526,28.874205 
z"/>
<path fill="#E9EDF1" opacity="1.000000" stroke="none" 
	d="
M22.907440,43.003170 
	C24.351446,35.852673 27.463037,30.216230 34.502010,26.817631 
	C34.090916,27.954504 33.977409,29.363661 33.223881,30.187212 
	C22.715715,41.671860 23.215557,54.637192 34.598248,65.315552 
	C35.380814,66.049698 35.679310,67.299850 36.202923,68.310028 
	C34.955963,68.120399 33.357716,68.360855 32.516850,67.674057 
	C24.843046,61.406212 21.628027,53.269497 22.907440,43.003170 
z"/>
</svg>